<svg width="241" height="68" viewBox="0 0 241 68" fill="none" xmlns="http://www.w3.org/2000/svg">
<rect width="241" height="68" rx="20" fill="#1D7B59" fill-opacity="0.1"/>
<g clip-path="url(#clip0_3493_23854)">
<path d="M75.0681 52.0005C74.4631 51.8392 73.8321 51.7413 73.2573 51.5074C70.4562 50.3605 68.8095 48.2758 68.5496 45.25C68.3193 42.58 68.2482 39.8958 68.1094 37.2187C67.9855 34.8427 67.8634 32.4666 67.7432 30.0906C67.7355 29.9497 67.7136 29.8151 67.7052 29.7383C67.0889 30.0427 66.4944 30.397 65.8556 30.6302C65.3692 30.7943 64.8602 30.8817 64.347 30.8895C63.2496 30.9268 62.1502 30.9014 61.0099 30.9014V29.8369C61.0099 29.1923 61.0099 28.5477 61.0099 27.9038C61 25.7931 61.8783 24.1861 63.6842 23.0899C63.7243 23.066 63.7617 23.0378 63.8413 22.9836C61.6614 21.1674 60.8042 18.8185 61.0374 16.0217H63.1165C63.1165 16.3612 63.1109 16.7079 63.1165 17.0538C63.1503 18.8946 63.8821 20.3875 65.3795 21.4696C66.2247 22.0776 67.1593 22.4087 68.2242 22.4066C75.3698 22.3948 82.5152 22.3948 89.6603 22.4066C91.5183 22.4066 92.9086 21.5767 93.9566 20.1106C94.611 19.199 94.8786 18.1521 94.8885 17.0369C94.8885 16.7093 94.8885 16.3824 94.8885 16.002H96.9965V17.9027C96.9704 18.0034 96.9366 18.1035 96.9204 18.2056C96.681 19.7344 96.0499 21.0779 94.9828 22.2093C94.7286 22.4784 94.4722 22.7454 94.2081 23.0202C95.1984 23.5641 95.9851 24.339 96.457 25.3824C96.695 25.9086 96.8204 26.4856 96.9972 27.0394V30.9071C95.8844 30.9071 94.7708 30.931 93.6587 30.893C93.1454 30.8852 92.6365 30.7977 92.1501 30.6337C91.5119 30.4005 90.9175 30.0462 90.3005 29.7418C90.2921 29.8172 90.2702 29.9532 90.2632 30.0941C90.1402 32.4692 90.0181 34.8436 89.8969 37.2173C89.7561 39.8944 89.6856 42.58 89.4567 45.2486C89.1989 48.2744 87.5529 50.3591 84.7512 51.5074C84.1764 51.7427 83.5461 51.8406 82.941 52.0005H75.0681ZM69.5744 24.525C69.8435 29.782 70.1111 34.9981 70.3781 40.203C76.1535 36.2162 81.8754 36.2183 87.6269 40.203C87.8941 34.9812 88.1617 29.7552 88.4298 24.525H69.5744ZM79.0053 49.8321V49.8927C79.7554 49.8927 80.5055 49.9068 81.2549 49.8884C81.8853 49.8729 82.5297 49.8934 83.1425 49.7701C85.6013 49.2769 87.2508 47.3255 87.3811 44.8125C87.4128 44.1996 87.5832 43.5028 87.3557 42.9942C87.1282 42.4855 86.5106 42.1093 86.0133 41.7402C83.0819 39.552 79.8188 38.8736 76.2606 39.6971C74.0983 40.1987 72.2523 41.2858 70.7042 42.8758C70.6232 42.9583 70.5408 43.0928 70.5464 43.1985C70.5872 43.9932 70.5915 44.7956 70.7168 45.5783C71.069 47.8038 72.9862 49.6355 75.2139 49.8124C76.4704 49.9138 77.741 49.8321 79.0053 49.8321ZM63.1517 28.7851C66.705 29.1043 67.6988 26.704 67.3495 24.5187C64.1392 24.2298 62.8418 26.1827 63.1517 28.7851ZM90.6203 24.5384C90.2913 27.9834 92.5741 29.0986 94.8786 28.745C95.1716 25.6452 93.3375 24.2291 90.6189 24.5384H90.6203Z" fill="#1D7B59"/>
<path d="M73.377 30.4868C73.655 30.4861 73.9269 30.568 74.1583 30.7221C74.3897 30.8762 74.5702 31.0955 74.6768 31.3523C74.7835 31.6091 74.8115 31.8918 74.7573 32.1645C74.7032 32.4372 74.5693 32.6877 74.3726 32.8842C74.1759 33.0807 73.9254 33.2144 73.6526 33.2683C73.3799 33.3222 73.0974 33.2939 72.8407 33.187C72.5841 33.0801 72.365 32.8994 72.2112 32.6677C72.0574 32.4361 71.9758 32.164 71.9768 31.886C71.976 31.7019 72.0116 31.5195 72.0817 31.3492C72.1518 31.179 72.2549 31.0244 72.3851 30.8943C72.5153 30.7642 72.67 30.6612 72.8403 30.5912C73.0105 30.5213 73.193 30.4858 73.377 30.4868Z" fill="#1D7B59"/>
<path d="M86.0316 31.8804C86.0337 32.1583 85.9532 32.4306 85.8005 32.6628C85.6477 32.895 85.4295 33.0766 85.1735 33.1846C84.9175 33.2927 84.6352 33.3223 84.3623 33.2697C84.0895 33.2171 83.8384 33.0847 83.6408 32.8893C83.4433 32.6938 83.3081 32.4441 83.2526 32.1718C83.197 31.8995 83.2234 31.6168 83.3286 31.3595C83.4338 31.1023 83.6129 30.882 83.8433 30.7267C84.0737 30.5713 84.3451 30.4879 84.6229 30.4869C84.8072 30.4848 84.9901 30.5192 85.1609 30.5883C85.3318 30.6574 85.4872 30.7597 85.6183 30.8893C85.7493 31.0189 85.8533 31.1733 85.9243 31.3434C85.9952 31.5136 86.0317 31.6961 86.0316 31.8804Z" fill="#1D7B59"/>
<path d="M75.4858 44.9712C75.7638 44.9705 76.0357 45.0524 76.2671 45.2065C76.4985 45.3605 76.679 45.5799 76.7856 45.8367C76.8923 46.0934 76.9203 46.3761 76.8661 46.6489C76.8119 46.9216 76.678 47.1721 76.4814 47.3686C76.2847 47.5651 76.0341 47.6988 75.7614 47.7527C75.4887 47.8066 75.2061 47.7783 74.9495 47.6714C74.6929 47.5645 74.4738 47.3837 74.32 47.1521C74.1662 46.9205 74.0846 46.6484 74.0856 46.3703C74.0848 46.1863 74.1206 46.0039 74.1907 45.8337C74.2608 45.6635 74.3639 45.5089 74.4941 45.3788C74.6243 45.2488 74.779 45.1458 74.9492 45.0758C75.1194 45.0058 75.3018 44.9703 75.4858 44.9712Z" fill="#1D7B59"/>
<path d="M82.5311 47.7798C82.2532 47.7821 81.9808 47.7019 81.7485 47.5493C81.5162 47.3967 81.3344 47.1785 81.2262 46.9225C81.118 46.6664 81.0882 46.384 81.1406 46.111C81.193 45.838 81.3253 45.5867 81.5206 45.3889C81.7159 45.1912 81.9655 45.0559 82.2378 45.0002C82.5101 44.9445 82.7928 44.9708 83.0501 45.076C83.3074 45.1812 83.5276 45.3603 83.683 45.5908C83.8384 45.8213 83.9218 46.0928 83.9228 46.3708C83.925 46.555 83.8906 46.7378 83.8216 46.9086C83.7526 47.0794 83.6505 47.2348 83.521 47.3659C83.3916 47.4969 83.2374 47.601 83.0675 47.672C82.8976 47.7431 82.7153 47.7797 82.5311 47.7798Z" fill="#1D7B59"/>
</g>
<path d="M122.48 38.94V27.72C122.48 27.0133 122.84 26.66 123.56 26.66H128.74C129.887 26.66 130.8 26.9733 131.48 27.6C132.16 28.2267 132.5 29.0467 132.5 30.06C132.5 30.8467 132.28 31.52 131.84 32.08C131.4 32.64 130.847 32.9867 130.18 33.12C130.887 33.2267 131.493 33.6 132 34.24C132.507 34.88 132.76 35.6 132.76 36.4C132.76 37.4933 132.413 38.3667 131.72 39.02C131.027 39.6733 130.087 40 128.9 40H123.56C122.84 40 122.48 39.6467 122.48 38.94ZM124.48 32.32H128.36C129 32.32 129.507 32.14 129.88 31.78C130.253 31.42 130.44 30.9533 130.44 30.38C130.44 29.7933 130.253 29.32 129.88 28.96C129.507 28.6 129 28.42 128.36 28.42H124.48V32.32ZM124.48 38.24H128.46C129.153 38.24 129.7 38.0533 130.1 37.68C130.5 37.3067 130.7 36.7933 130.7 36.14C130.7 35.54 130.5 35.0467 130.1 34.66C129.7 34.2733 129.153 34.08 128.46 34.08H124.48V38.24ZM143.514 31.14V39.2C143.514 39.4533 143.421 39.6667 143.234 39.84C143.061 40.0133 142.854 40.1 142.614 40.1C142.361 40.1 142.147 40.0133 141.974 39.84C141.801 39.6667 141.714 39.4533 141.714 39.2V38.68C140.767 39.72 139.621 40.24 138.274 40.24C136.221 40.24 135.194 39.2133 135.194 37.16V31.14C135.194 30.8867 135.281 30.6733 135.454 30.5C135.627 30.3267 135.841 30.24 136.094 30.24C136.334 30.24 136.541 30.3267 136.714 30.5C136.901 30.6733 136.994 30.8867 136.994 31.14V36.56C136.994 37.3067 137.161 37.84 137.494 38.16C137.827 38.48 138.341 38.64 139.034 38.64C139.554 38.64 140.054 38.5133 140.534 38.26C141.027 38.0067 141.421 37.68 141.714 37.28V31.14C141.714 30.8867 141.801 30.6733 141.974 30.5C142.147 30.3267 142.354 30.24 142.594 30.24C142.847 30.24 143.061 30.3267 143.234 30.5C143.421 30.6733 143.514 30.8867 143.514 31.14ZM146.366 39.2V27.46C146.366 27.2067 146.452 26.9933 146.626 26.82C146.799 26.6467 147.012 26.56 147.266 26.56C147.506 26.56 147.712 26.6467 147.886 26.82C148.072 26.9933 148.166 27.2067 148.166 27.46V39.2C148.166 39.4533 148.072 39.6667 147.886 39.84C147.712 40.0133 147.506 40.1 147.266 40.1C147.012 40.1 146.799 40.0133 146.626 39.84C146.452 39.6667 146.366 39.4533 146.366 39.2ZM151.034 39.2V27.46C151.034 27.2067 151.12 26.9933 151.294 26.82C151.467 26.6467 151.68 26.56 151.934 26.56C152.174 26.56 152.38 26.6467 152.554 26.82C152.74 26.9933 152.834 27.2067 152.834 27.46V39.2C152.834 39.4533 152.74 39.6667 152.554 39.84C152.38 40.0133 152.174 40.1 151.934 40.1C151.68 40.1 151.467 40.0133 151.294 39.84C151.12 39.6667 151.034 39.4533 151.034 39.2ZM155.762 28.08C155.535 27.8533 155.422 27.58 155.422 27.26C155.422 26.94 155.535 26.6733 155.762 26.46C155.988 26.2333 156.262 26.12 156.582 26.12C156.902 26.12 157.175 26.2333 157.402 26.46C157.628 26.6733 157.742 26.94 157.742 27.26C157.742 27.58 157.628 27.8533 157.402 28.08C157.175 28.3067 156.902 28.42 156.582 28.42C156.275 28.42 156.002 28.3067 155.762 28.08ZM155.702 39.2V31.14C155.702 30.8867 155.788 30.6733 155.962 30.5C156.135 30.3267 156.348 30.24 156.602 30.24C156.842 30.24 157.048 30.3267 157.222 30.5C157.408 30.6733 157.502 30.8867 157.502 31.14V39.2C157.502 39.4533 157.408 39.6667 157.222 39.84C157.048 40.0133 156.835 40.1 156.582 40.1C156.342 40.1 156.135 40.0133 155.962 39.84C155.788 39.6667 155.702 39.4533 155.702 39.2ZM159.69 38.52C159.69 38.2933 159.763 38.1067 159.91 37.96C160.07 37.8133 160.256 37.74 160.47 37.74C160.63 37.74 160.776 37.7867 160.91 37.88C161.763 38.4933 162.67 38.8 163.63 38.8C164.296 38.8 164.81 38.68 165.17 38.44C165.53 38.2 165.71 37.86 165.71 37.42C165.71 37.0067 165.523 36.6933 165.15 36.48C164.79 36.2533 164.196 36.0467 163.37 35.86C162.503 35.6467 161.89 35.4733 161.53 35.34C160.383 34.8733 159.81 34.08 159.81 32.96C159.81 32.1467 160.143 31.4667 160.81 30.92C161.476 30.3733 162.37 30.1 163.49 30.1C164.73 30.1 165.803 30.4333 166.71 31.1C166.923 31.26 167.03 31.46 167.03 31.7C167.03 31.9 166.956 32.0733 166.81 32.22C166.663 32.3667 166.49 32.44 166.29 32.44C166.13 32.44 165.996 32.3933 165.89 32.3C165.236 31.8067 164.443 31.56 163.51 31.56C162.896 31.56 162.41 31.6733 162.05 31.9C161.703 32.1267 161.53 32.4333 161.53 32.82C161.53 33.1667 161.703 33.44 162.05 33.64C162.396 33.84 162.97 34.0333 163.77 34.22C164.53 34.3933 165.156 34.5733 165.65 34.76C166.85 35.2267 167.45 36.0667 167.45 37.28C167.45 38.16 167.103 38.8733 166.41 39.42C165.716 39.9667 164.763 40.24 163.55 40.24C162.163 40.24 160.99 39.88 160.03 39.16C159.803 39 159.69 38.7867 159.69 38.52ZM176.245 39.2V33.78C176.245 33.0467 176.072 32.52 175.725 32.2C175.392 31.8667 174.878 31.7 174.185 31.7C173.665 31.7 173.165 31.8333 172.685 32.1C172.205 32.3667 171.818 32.7 171.525 33.1V39.2C171.525 39.4533 171.432 39.6667 171.245 39.84C171.072 40.0133 170.865 40.1 170.625 40.1C170.372 40.1 170.158 40.0133 169.985 39.84C169.812 39.6667 169.725 39.4533 169.725 39.2V27.46C169.725 27.2067 169.812 26.9933 169.985 26.82C170.158 26.6467 170.372 26.56 170.625 26.56C170.865 26.56 171.072 26.6467 171.245 26.82C171.432 26.9933 171.525 27.2067 171.525 27.46V31.7C171.898 31.2333 172.392 30.8533 173.005 30.56C173.632 30.2533 174.278 30.1 174.945 30.1C177.012 30.1 178.045 31.1267 178.045 33.18V39.2C178.045 39.4533 177.958 39.6667 177.785 39.84C177.612 40.0133 177.398 40.1 177.145 40.1C176.905 40.1 176.692 40.0133 176.505 39.84C176.332 39.6667 176.245 39.4533 176.245 39.2Z" fill="#1D7B59"/>
<defs>
<clipPath id="clip0_3493_23854">
<rect width="36" height="36" fill="white" transform="translate(61 16)"/>
</clipPath>
</defs>
</svg>
