<svg width="79" height="79" viewBox="0 0 79 79" fill="none" xmlns="http://www.w3.org/2000/svg">
<circle opacity="0.6" cx="39.5" cy="39.5" r="39.5" fill="#1D1C23" fill-opacity="0.26"/>
<path d="M34.4998 58.3332H30.8332C23.4998 58.3332 21.6665 56.4998 21.6665 49.1665V30.8332C21.6665 23.4998 23.4998 21.6665 30.8332 21.6665H33.5832C36.3332 21.6665 36.9382 22.4732 37.9832 23.8665L40.7332 27.5332C41.4298 28.4498 41.8332 28.9815 43.6665 28.9815H49.1665C56.4998 28.9815 58.3332 30.8148 58.3332 38.1482V41.8148" stroke="#1D1C23" stroke-width="3" stroke-linecap="round" stroke-linejoin="round"/>
<path d="M43.2264 51.5864C38.918 51.898 38.918 58.1314 43.2264 58.443H53.4197C54.648 58.443 55.858 57.9847 56.7564 57.1597C59.7814 54.5197 58.1497 49.2397 54.1714 48.7447C52.7414 40.1464 40.3114 43.4097 43.2447 51.6047" stroke="#1D1C23" stroke-width="3" stroke-linecap="round" stroke-linejoin="round"/>
</svg>
