<svg width="20" height="15" viewBox="0 0 20 15" fill="none" xmlns="http://www.w3.org/2000/svg">
<path d="M17.48 5.95H18.5C19.05 5.95 19.5 5.5 19.5 4.95V4.51C19.5 2.44 17.81 0.75 15.74 0.75H4.26C3.41 0.75 2.63 1.03 2 1.51C1.09 2.19 0.5 3.28 0.5 4.51V11.24C0.5 13.31 2.19 15 4.26 15H15.74C17.81 15 19.5 13.31 19.5 11.24V11.05C19.5 10.5 19.05 10.05 18.5 10.05H17.63C16.67 10.05 15.75 9.46 15.5 8.53C15.29 7.77 15.54 7.04 16.04 6.55C16.41 6.17 16.92 5.95 17.48 5.95V5.95ZM12 5.75H5C4.59 5.75 4.25 5.41 4.25 5C4.25 4.59 4.59 4.25 5 4.25H12C12.41 4.25 12.75 4.59 12.75 5C12.75 5.41 12.41 5.75 12 5.75Z" fill="#00B775"/>
</svg>
